<?xml version="1.0" standalone="no"?><!DOCTYPE svg PUBLIC "-//W3C//DTD SVG 1.1//EN" "http://www.w3.org/Graphics/SVG/1.1/DTD/svg11.dtd"><svg class="icon" height="512" viewBox="0 0 1024 1024" version="1.1" xmlns="http://www.w3.org/2000/svg"><path d="M719.286 669.956l-116.446-42.344-165.162 33.032-165.162-33.032-116.446 42.344c-39.162 14.24-65.232 51.46-65.232 93.132v128.784a16.516 16.516 0 0 0 16.516 16.516H768a16.516 16.516 0 0 0 16.516-16.516v-128.784c0-41.672-26.068-78.89-65.23-93.132z" fill="#E4EAF8" /><path d="M719.286 669.956l-59.408-21.602c-72.696 34.4-123.104 108.204-123.104 193.968 0 23.066 3.732 45.238 10.464 66.064H768a16.516 16.516 0 0 0 16.516-16.516v-128.786c0-41.668-26.07-78.888-65.23-93.128z" fill="#D5DCED" /><path d="M751.48 842.32m-181.68 0a181.68 181.68 0 1 0 363.36 0 181.68 181.68 0 1 0-363.36 0Z" fill="#B4E66E" /><path d="M842.322 975.086c-100.338 0-181.678-81.34-181.678-181.678 0-50.426 20.556-96.044 53.73-128.96-82.538 17.132-144.57 90.254-144.57 177.872 0 100.338 81.34 181.678 181.678 181.678 49.912 0 95.11-20.138 127.948-52.718a182.332 182.332 0 0 1-37.108 3.806z" fill="#A0D755" /><path d="M322.06 495.48h231.22v165.16H322.06z" fill="#E6AF78" /><path d="M322.064 546.878c34.038 19.716 73.446 31.186 115.612 31.186s81.574-11.47 115.612-31.186v-51.394H322.064v51.394z" fill="#D29B6E" /><path d="M602.838 0H388.126c-29.51 0-55.928 12.97-74.082 33.438-50.968 4.094-91.076 46.67-91.076 98.692V194.38a165.12 165.12 0 0 0 4.932 40.058l6.652 26.61a165.132 165.132 0 0 1 4.932 40.058v29.216h396.388v-29.216a165.12 165.12 0 0 1 4.932-40.058l6.652-26.61a165.132 165.132 0 0 0 4.932-40.058V49.548C652.388 22.184 630.204 0 602.838 0z" fill="#694B4B" /><path d="M388.13 330.322v-165.16h-33.032c-36.486 0-66.064-29.578-66.064-66.064 0-25.238 9.514-48.202 25.05-65.698l-0.038 0.04c-50.968 4.094-91.076 46.67-91.076 98.692V194.38c0 13.504 1.656 26.956 4.932 40.058l6.654 26.61a165.12 165.12 0 0 1 4.932 40.058v29.216h148.642z" fill="#5A4146" /><path d="M111.684 702.676c-13.094 16.966-20.844 37.97-20.844 60.412v128.784a16.516 16.516 0 0 0 16.516 16.516h99.096v-61.42a99.09 99.09 0 0 0-25.032-65.836l-69.736-78.456z" fill="#D5DCED" /><path d="M460.994 710.194l-46.634 0.014-9.714 198.18h66.064z" fill="#B4E66E" /><path d="M824.162 821.678h-52.032v-52.032c0-11.404-9.242-20.646-20.646-20.646s-20.646 9.242-20.646 20.646v52.032h-52.032c-11.404 0-20.646 9.242-20.646 20.646s9.242 20.646 20.646 20.646h52.032V915c0 11.404 9.242 20.646 20.646 20.646s20.646-9.242 20.646-20.646v-52.032h52.032c11.404 0 20.646-9.242 20.646-20.646 0-11.402-9.242-20.644-20.646-20.644z" fill="#FFFFFF" /><path d="M404.646 660.646v49.548a16.516 16.516 0 0 0 16.516 16.516h33.032a16.516 16.516 0 0 0 16.516-16.516v-49.548h-66.064z" fill="#A0D755" /><path d="M319.148 586.564l118.53 74.08-68.794 68.794c-7.216 7.216-19.186 6.226-25.118-2.078l-71.248-99.748 24.136-36.204a16.514 16.514 0 0 1 22.494-4.844z" fill="#D5DCED" /><path d="M556.206 586.564l-118.53 74.08 68.794 68.794c7.216 7.216 19.186 6.226 25.118-2.078l71.248-99.748-24.136-36.204a16.514 16.514 0 0 0-22.494-4.844z" fill="#D5DCED" /><path d="M570.066 202.724c-77.07-50.308-196.234-46.138-251.286-40.862-16.928 1.622-29.748 15.872-29.748 32.878v38.156c0 9.506-3.776 18.622-10.498 25.342l-28.554 28.554a35.84 35.84 0 0 0-10.498 25.342v28.13c0 109.126 85.374 202.736 194.482 204.732 111.158 2.034 201.906-87.466 201.906-198.16v-34.702c0-9.506-3.776-18.622-10.498-25.342L596.82 258.24a35.84 35.84 0 0 1-10.498-25.342v-0.002c0-12.144-6.088-23.534-16.256-30.172z" fill="#F0C087" /><path d="M355.096 396.388v-151.032c0-17.944 14.216-32.638 32.154-33.034 51.548-1.142 134.398 1.1 199.232 22.196-0.026-0.546-0.16-1.072-0.16-1.62v-0.002c0-12.118-6.052-23.504-16.198-30.132-62.874-41.074-153.77-45.86-215.028-43.364-13.83 0.564-26.174 1.492-36.316 2.464-16.928 1.622-29.748 15.872-29.748 32.878v38.156c0 9.504-3.776 18.62-10.496 25.342l-28.554 28.552a35.84 35.84 0 0 0-10.498 25.344v28.13c0 104.908 78.97 195.228 182.006 203.848-40.652-36.296-66.394-88.942-66.394-147.726z" fill="#E6AF78" /></svg>